STARTFONT 2.1
FONT -thai-dbthaitext-medium-r-normal--39-280-100-100-p-116-tis620-0
SIZE 28 100 100
FONTBOUNDINGBOX 51 45 -13 -16
STARTPROPERTIES 25
FOUNDRY "thai"
FAMILY_NAME "dbthaitext"
WEIGHT_NAME "medium"
SLANT "r"
SETWIDTH_NAME "normal"
ADD_STYLE_NAME ""
PIXEL_SIZE 39
POINT_SIZE 280
RESOLUTION_X 100
RESOLUTION_Y 100
SPACING "p"
AVERAGE_WIDTH 116
CHARSET_REGISTRY "tis620"
CHARSET_ENCODING "0"
FONT "-thai-dbthaitext-medium-r-normal--39-280-100-100-p-116-tis620-0"
COPYRIGHT "Typeface (c) The Monotype Corporation plc. Data (c) The Monotype Corporation plc/Type Solutions Inc. 1990-1992. All Rights Reserved"
RAW_PIXELSIZE 1000
RAW_POINTSIZE 723
RAW_ASCENT 736
RAW_DESCENT 415
RAW_AVERAGE_WIDTH 2994
FACE_NAME "DBThaiTexthickne5"
DEFAULT_CHAR 0
FONT_ASCENT 29
FONT_DESCENT 16
ENDPROPERTIES
CHARS 190
STARTCHAR space
ENCODING 32
SWIDTH 257 0
DWIDTH 10 0
BBX 0 0 0 0
BITMAP
ENDCHAR
STARTCHAR exclam
ENCODING 33
SWIDTH 154 0
DWIDTH 6 0
BBX 1 17 3 0
BITMAP
80
80
80
80
80
80
80
80
80
80
80
80
80
00
00
80
80
ENDCHAR
STARTCHAR quotedbl
ENCODING 34
SWIDTH 205 0
DWIDTH 8 0
BBX 5 5 2 11
BITMAP
88
88
88
88
88
ENDCHAR
STARTCHAR numbersign
ENCODING 35
SWIDTH 334 0
DWIDTH 13 0
BBX 12 16 0 0
BITMAP
0c60
0c40
0c40
0cc0
08c0
7ff0
1880
1880
1980
1980
ffe0
3100
3100
3300
2300
2300
ENDCHAR
STARTCHAR dollar
ENCODING 36
SWIDTH 334 0
DWIDTH 13 0
BBX 11 21 1 -3
BITMAP
0400
0e00
3f80
65c0
c4c0
c440
c400
e400
7c00
3f00
07c0
04e0
0460
c420
c420
c460
75c0
3f80
0400
0400
0400
ENDCHAR
STARTCHAR percent
ENCODING 37
SWIDTH 540 0
DWIDTH 21 0
BBX 19 16 1 0
BITMAP
3c0400
7e0c00
c30800
c31800
c31000
c33000
7e6000
3c6000
00c100
00cfc0
018cc0
019860
031860
021860
060cc0
040fc0
ENDCHAR
STARTCHAR ampersand
ENCODING 38
SWIDTH 411 0
DWIDTH 16 0
BBX 14 18 1 -1
BITMAP
0200
1f80
39c0
30c0
30c0
39c0
1b80
0f00
1e00
3f30
63b0
e1b0
c0e0
c060
e0f0
7ff8
3f18
0800
ENDCHAR
STARTCHAR apostrophe
ENCODING 39
SWIDTH 102 0
DWIDTH 4 0
BBX 1 5 2 11
BITMAP
80
80
80
80
80
ENDCHAR
STARTCHAR parenleft
ENCODING 40
SWIDTH 205 0
DWIDTH 8 0
BBX 5 22 2 -5
BITMAP
18
10
30
20
60
40
40
c0
80
80
80
80
80
c0
c0
40
40
60
20
30
10
18
ENDCHAR
STARTCHAR parenright
ENCODING 41
SWIDTH 205 0
DWIDTH 8 0
BBX 4 22 1 -5
BITMAP
80
40
40
20
20
20
20
10
10
10
10
10
10
10
10
10
20
20
20
40
40
80
ENDCHAR
STARTCHAR asterisk
ENCODING 42
SWIDTH 231 0
DWIDTH 9 0
BBX 7 7 1 11
BITMAP
10
10
10
fe
38
38
6c
ENDCHAR
STARTCHAR plus
ENCODING 43
SWIDTH 360 0
DWIDTH 14 0
BBX 11 11 1 0
BITMAP
0400
0400
0400
0400
0400
ffe0
0400
0400
0400
0400
0400
ENDCHAR
STARTCHAR comma
ENCODING 44
SWIDTH 154 0
DWIDTH 6 0
BBX 4 5 1 -2
BITMAP
e0
f0
f0
30
60
ENDCHAR
STARTCHAR minus
ENCODING 45
SWIDTH 205 0
DWIDTH 8 0
BBX 6 1 1 6
BITMAP
fc
ENDCHAR
STARTCHAR period
ENCODING 46
SWIDTH 154 0
DWIDTH 6 0
BBX 3 3 1 0
BITMAP
e0
e0
40
ENDCHAR
STARTCHAR slash
ENCODING 47
SWIDTH 154 0
DWIDTH 6 0
BBX 7 17 0 -1
BITMAP
06
04
04
0c
08
08
18
10
10
30
20
20
60
40
40
c0
80
ENDCHAR
STARTCHAR 0
ENCODING 48
SWIDTH 282 0
DWIDTH 11 0
BBX 9 14 1 0
BITMAP
1c00
7f00
6300
c180
c180
c180
c180
c180
c180
c180
c180
4100
6300
3e00
ENDCHAR
STARTCHAR 1
ENCODING 49
SWIDTH 282 0
DWIDTH 11 0
BBX 5 14 2 0
BITMAP
08
18
78
f8
08
08
08
08
08
08
08
08
08
08
ENDCHAR
STARTCHAR 2
ENCODING 50
SWIDTH 282 0
DWIDTH 11 0
BBX 9 15 1 -1
BITMAP
1e00
7f00
4180
c080
c080
0180
0300
0600
1c00
3000
6000
c000
c000
ff80
c000
ENDCHAR
STARTCHAR 3
ENCODING 51
SWIDTH 282 0
DWIDTH 11 0
BBX 9 14 1 0
BITMAP
3e00
7f00
c300
c180
c180
0300
1e00
1f00
0180
0080
8080
c180
e300
7e00
ENDCHAR
STARTCHAR 4
ENCODING 52
SWIDTH 282 0
DWIDTH 11 0
BBX 9 14 1 0
BITMAP
0200
0600
0e00
0e00
1200
3200
6200
4200
8200
ff80
0200
0200
0200
0200
ENDCHAR
STARTCHAR 5
ENCODING 53
SWIDTH 282 0
DWIDTH 11 0
BBX 9 14 1 0
BITMAP
7f00
4000
4000
4000
4000
5e00
6300
c180
0180
0180
0180
c180
6300
3e00
ENDCHAR
STARTCHAR 6
ENCODING 54
SWIDTH 282 0
DWIDTH 11 0
BBX 9 14 1 0
BITMAP
1e00
3f00
6100
4180
c000
8c00
bf00
e100
c180
c180
c180
4180
6300
3e00
ENDCHAR
STARTCHAR 7
ENCODING 55
SWIDTH 282 0
DWIDTH 11 0
BBX 9 14 1 0
BITMAP
ff80
0180
0100
0300
0200
0400
0400
0800
0800
1800
1000
3000
3000
3000
ENDCHAR
STARTCHAR 8
ENCODING 56
SWIDTH 282 0
DWIDTH 11 0
BBX 9 14 1 0
BITMAP
1e00
6300
4100
c100
4100
6300
3e00
6300
c180
8180
8180
c180
6300
3e00
ENDCHAR
STARTCHAR 9
ENCODING 57
SWIDTH 282 0
DWIDTH 11 0
BBX 9 14 1 0
BITMAP
3e00
7f00
e100
c180
8180
c180
c180
6780
3c80
0180
0180
c100
6700
7e00
ENDCHAR
STARTCHAR colon
ENCODING 58
SWIDTH 154 0
DWIDTH 6 0
BBX 3 13 2 0
BITMAP
e0
e0
40
00
00
00
00
00
00
40
e0
e0
40
ENDCHAR
STARTCHAR semicolon
ENCODING 59
SWIDTH 154 0
DWIDTH 6 0
BBX 4 15 1 -2
BITMAP
e0
e0
e0
00
00
00
00
00
00
00
60
f0
70
10
60
ENDCHAR
STARTCHAR less
ENCODING 60
SWIDTH 360 0
DWIDTH 14 0
BBX 11 11 1 0
BITMAP
0020
00e0
0780
1e00
7800
c000
f000
1c00
0780
01e0
0020
ENDCHAR
STARTCHAR equal
ENCODING 61
SWIDTH 360 0
DWIDTH 14 0
BBX 11 5 1 3
BITMAP
ffe0
0000
0000
0000
ffe0
ENDCHAR
STARTCHAR greater
ENCODING 62
SWIDTH 360 0
DWIDTH 14 0
BBX 11 11 1 0
BITMAP
8000
e000
3c00
0f00
03c0
0060
01e0
0780
3c00
f000
c000
ENDCHAR
STARTCHAR question
ENCODING 63
SWIDTH 334 0
DWIDTH 13 0
BBX 10 18 2 0
BITMAP
3e00
7f00
7f80
e180
c0c0
c0c0
01c0
0180
0380
0700
0e00
0c00
0800
0000
0000
0000
0800
0800
ENDCHAR
STARTCHAR at
ENCODING 64
SWIDTH 617 0
DWIDTH 24 0
BBX 21 21 1 -3
BITMAP
007800
01fe00
07ff80
0e01c0
1c00e0
380030
307b38
61ff18
438718
c30618
870618
860618
860c10
c60c30
c31c60
63ffc0
70c780
380000
1c0000
0f0600
01fc00
ENDCHAR
STARTCHAR A
ENCODING 65
SWIDTH 411 0
DWIDTH 16 0
BBX 15 17 0 0
BITMAP
0380
03c0
07c0
06c0
06e0
0e60
0c60
1c70
1c70
1830
38f8
3ff8
3018
701c
600c
e00c
e00e
ENDCHAR
STARTCHAR B
ENCODING 66
SWIDTH 411 0
DWIDTH 16 0
BBX 12 17 2 0
BITMAP
ff80
81e0
80e0
8070
8070
8070
8060
80e0
ffc0
8060
8030
8030
8030
8030
8070
80e0
ffc0
ENDCHAR
STARTCHAR C
ENCODING 67
SWIDTH 437 0
DWIDTH 17 0
BBX 14 19 2 -1
BITMAP
0f80
1fc0
3fe0
7070
6038
4018
c000
8000
8000
8000
8000
8000
c01c
4018
6038
6030
3060
1dc0
0200
ENDCHAR
STARTCHAR D
ENCODING 68
SWIDTH 437 0
DWIDTH 17 0
BBX 12 17 3 0
BITMAP
ff00
81c0
80e0
8060
8030
8030
8010
8010
8010
8010
8030
8030
8020
8060
80c0
81c0
ff00
ENDCHAR
STARTCHAR E
ENCODING 69
SWIDTH 411 0
DWIDTH 16 0
BBX 11 17 3 0
BITMAP
ffe0
8000
8000
8000
8000
8000
8000
8000
ffc0
8000
8000
8000
8000
8000
8000
8000
ffe0
ENDCHAR
STARTCHAR F
ENCODING 70
SWIDTH 360 0
DWIDTH 14 0
BBX 10 17 3 0
BITMAP
ffc0
8000
8000
8000
8000
8000
8000
8000
ff80
8000
8000
8000
8000
8000
8000
8000
8000
ENDCHAR
STARTCHAR G
ENCODING 71
SWIDTH 462 0
DWIDTH 18 0
BBX 14 19 2 -1
BITMAP
0fc0
3ce0
3c70
3038
6018
400c
4000
8000
8000
81fc
800c
800c
c00c
400c
601c
703c
386c
1fc4
0300
ENDCHAR
STARTCHAR H
ENCODING 72
SWIDTH 437 0
DWIDTH 17 0
BBX 11 17 3 0
BITMAP
8020
8020
8020
8020
8020
8020
8020
8020
ffe0
8020
8020
8020
8020
8020
8020
8020
8020
ENDCHAR
STARTCHAR I
ENCODING 73
SWIDTH 154 0
DWIDTH 6 0
BBX 1 17 3 0
BITMAP
80
80
80
80
80
80
80
80
80
80
80
80
80
80
80
80
80
ENDCHAR
STARTCHAR J
ENCODING 74
SWIDTH 308 0
DWIDTH 12 0
BBX 8 18 1 -1
BITMAP
01
01
01
01
01
01
01
01
01
01
01
01
81
81
c3
66
7c
10
ENDCHAR
STARTCHAR K
ENCODING 75
SWIDTH 411 0
DWIDTH 16 0
BBX 13 17 2 0
BITMAP
8038
8070
80e0
c1c0
c380
c700
ce00
de00
fe00
e300
c380
8180
80c0
80e0
8060
8030
8038
ENDCHAR
STARTCHAR L
ENCODING 76
SWIDTH 334 0
DWIDTH 13 0
BBX 10 17 2 0
BITMAP
8000
8000
8000
8000
8000
8000
8000
8000
8000
8000
8000
8000
8000
8000
8000
8000
ffc0
ENDCHAR
STARTCHAR M
ENCODING 77
SWIDTH 488 0
DWIDTH 19 0
BBX 15 17 2 0
BITMAP
e00e
e00e
f00e
f01e
b016
b816
b836
9836
9c26
8c66
8c66
8e42
86c2
86c2
83c2
8382
8382
ENDCHAR
STARTCHAR N
ENCODING 78
SWIDTH 437 0
DWIDTH 17 0
BBX 12 17 2 0
BITMAP
e010
e010
f010
f810
b810
bc10
9c10
8e10
8710
8710
8390
81d0
81d0
80f0
8070
8070
8030
ENDCHAR
STARTCHAR O
ENCODING 79
SWIDTH 462 0
DWIDTH 18 0
BBX 16 19 1 -1
BITMAP
07e0
1e78
3e3c
381c
700e
6006
e007
c003
8001
8001
8001
c003
e003
6006
7006
300c
1c1c
0ff0
0180
ENDCHAR
STARTCHAR P
ENCODING 80
SWIDTH 411 0
DWIDTH 16 0
BBX 11 17 3 0
BITMAP
ff80
81c0
80e0
8060
8060
8060
8060
80c0
ff80
8000
8000
8000
8000
8000
8000
8000
8000
ENDCHAR
STARTCHAR Q
ENCODING 81
SWIDTH 462 0
DWIDTH 18 0
BBX 16 19 1 -1
BITMAP
07e0
1e78
3e3c
381c
700e
6006
e007
c003
8001
8001
8001
c003
e003
6026
7076
303c
1c3c
0ff6
0183
ENDCHAR
STARTCHAR R
ENCODING 82
SWIDTH 437 0
DWIDTH 17 0
BBX 13 17 3 0
BITMAP
ff80
80e0
8060
8030
8030
8030
8020
8040
ff80
80c0
8060
8020
8020
8020
8030
8030
8038
ENDCHAR
STARTCHAR S
ENCODING 83
SWIDTH 411 0
DWIDTH 16 0
BBX 13 19 1 -1
BITMAP
0fc0
39e0
30f0
7030
6030
6010
6000
7000
3f00
1fe0
01f0
0038
0018
c008
e018
6030
7cf0
1fe0
0300
ENDCHAR
STARTCHAR T
ENCODING 84
SWIDTH 360 0
DWIDTH 14 0
BBX 13 17 1 0
BITMAP
fff8
0200
0200
0200
0200
0200
0200
0200
0200
0200
0200
0200
0200
0200
0200
0200
0200
ENDCHAR
STARTCHAR U
ENCODING 85
SWIDTH 437 0
DWIDTH 17 0
BBX 11 18 3 -1
BITMAP
8020
8020
8020
8020
8020
8020
8020
8020
8020
8020
8020
8020
8020
8020
4040
60c0
3b80
0400
ENDCHAR
STARTCHAR V
ENCODING 86
SWIDTH 411 0
DWIDTH 16 0
BBX 14 17 1 0
BITMAP
c00c
601c
6018
6018
3030
3030
3030
1860
1860
1860
0cc0
0cc0
0cc0
0780
0780
0780
0300
ENDCHAR
STARTCHAR W
ENCODING 87
SWIDTH 565 0
DWIDTH 22 0
BBX 21 17 1 0
BITMAP
c07038
e07038
607030
60d830
60d830
70d870
30d860
318c60
318c60
398ce0
1b06c0
1b06c0
1b06c0
1f07c0
0e0380
0e0380
0e0380
ENDCHAR
STARTCHAR X
ENCODING 88
SWIDTH 411 0
DWIDTH 16 0
BBX 15 17 0 0
BITMAP
700c
701c
3838
1c30
1c70
0ee0
07c0
07c0
0380
07c0
0ee0
0e60
1c70
3838
3838
701c
e00e
ENDCHAR
STARTCHAR Y
ENCODING 89
SWIDTH 411 0
DWIDTH 16 0
BBX 15 17 0 0
BITMAP
600e
700c
381c
1818
1c30
0c30
0660
0740
0380
0380
0100
0100
0100
0100
0100
0100
0100
ENDCHAR
STARTCHAR Z
ENCODING 90
SWIDTH 360 0
DWIDTH 14 0
BBX 13 17 1 0
BITMAP
7ff8
0038
0078
0070
00e0
01c0
03c0
0380
0700
0f00
0e00
1c00
3800
3800
7000
e000
fff8
ENDCHAR
STARTCHAR bracketleft
ENCODING 91
SWIDTH 154 0
DWIDTH 6 0
BBX 4 22 2 -5
BITMAP
f0
80
80
80
80
80
80
80
80
80
80
80
80
80
80
80
80
80
80
80
80
f0
ENDCHAR
STARTCHAR backslash
ENCODING 92
SWIDTH 154 0
DWIDTH 6 0
BBX 7 17 0 0
BITMAP
c0
c0
40
60
60
20
30
30
10
10
18
08
08
0c
04
04
06
ENDCHAR
STARTCHAR bracketright
ENCODING 93
SWIDTH 154 0
DWIDTH 6 0
BBX 3 22 1 -5
BITMAP
e0
20
20
20
20
20
20
20
20
20
20
20
20
20
20
20
20
20
20
20
20
e0
ENDCHAR
STARTCHAR asciicircum
ENCODING 94
SWIDTH 282 0
DWIDTH 11 0
BBX 9 9 1 8
BITMAP
0800
1c00
1400
3600
3600
2200
6300
4100
c180
ENDCHAR
STARTCHAR underscore
ENCODING 95
SWIDTH 334 0
DWIDTH 13 0
BBX 14 1 -1 -4
BITMAP
fffc
ENDCHAR
STARTCHAR grave
ENCODING 96
SWIDTH 180 0
DWIDTH 7 0
BBX 7 7 0 3
BITMAP
38
7c
fe
fe
fe
7c
38
ENDCHAR
STARTCHAR a
ENCODING 97
SWIDTH 334 0
DWIDTH 13 0
BBX 11 14 1 -1
BITMAP
1f00
3f80
61c0
6040
0040
00c0
1fc0
7cc0
e040
c040
c1c0
e3c0
7e60
0820
ENDCHAR
STARTCHAR b
ENCODING 98
SWIDTH 334 0
DWIDTH 13 0
BBX 10 18 2 -1
BITMAP
8000
8000
8000
c000
de00
f300
e380
c1c0
c0c0
80c0
80c0
80c0
80c0
c1c0
c180
f380
bf00
0800
ENDCHAR
STARTCHAR c
ENCODING 99
SWIDTH 308 0
DWIDTH 12 0
BBX 10 14 1 -1
BITMAP
0e00
3f80
7180
60c0
c0c0
8000
8000
8000
c000
c0c0
60c0
7380
3f00
0400
ENDCHAR
STARTCHAR d
ENCODING 100
SWIDTH 334 0
DWIDTH 13 0
BBX 10 18 1 -1
BITMAP
0040
0040
0040
0040
1e40
73c0
61c0
e0c0
c0c0
c0c0
c040
c040
c040
c0c0
e0c0
71c0
3f40
0400
ENDCHAR
STARTCHAR e
ENCODING 101
SWIDTH 334 0
DWIDTH 13 0
BBX 11 14 1 -1
BITMAP
0f00
3f80
71c0
60c0
c060
c060
ffe0
c000
c000
c060
60c0
71c0
3b80
0400
ENDCHAR
STARTCHAR f
ENCODING 102
SWIDTH 154 0
DWIDTH 6 0
BBX 6 18 0 0
BITMAP
0c
1c
1c
10
10
10
fc
10
10
10
10
10
10
10
10
10
10
10
ENDCHAR
STARTCHAR g
ENCODING 103
SWIDTH 334 0
DWIDTH 13 0
BBX 10 18 1 -5
BITMAP
1fc0
77c0
63c0
e1c0
c0c0
c0c0
c040
c040
c040
c0c0
e0c0
73c0
3ec0
08c0
c0c0
e180
7f80
3f00
ENDCHAR
STARTCHAR h
ENCODING 104
SWIDTH 334 0
DWIDTH 13 0
BBX 9 17 2 0
BITMAP
8000
8000
8000
c000
c400
df00
f380
c080
8080
8080
8080
8080
8080
8080
8080
8080
8080
ENDCHAR
STARTCHAR i
ENCODING 105
SWIDTH 128 0
DWIDTH 5 0
BBX 1 17 2 0
BITMAP
80
80
00
00
00
80
80
80
80
80
80
80
80
80
80
80
80
ENDCHAR
STARTCHAR j
ENCODING 106
SWIDTH 128 0
DWIDTH 5 0
BBX 3 22 0 -5
BITMAP
20
20
00
00
00
20
20
20
20
20
20
20
20
20
20
20
20
20
20
20
e0
c0
ENDCHAR
STARTCHAR k
ENCODING 107
SWIDTH 308 0
DWIDTH 12 0
BBX 10 17 2 0
BITMAP
8000
8000
8000
8000
8000
c300
c600
cc00
d800
f800
fc00
cc00
8600
8600
8300
8380
8180
ENDCHAR
STARTCHAR l
ENCODING 108
SWIDTH 128 0
DWIDTH 5 0
BBX 1 17 2 0
BITMAP
80
80
80
80
80
80
80
80
80
80
80
80
80
80
80
80
80
ENDCHAR
STARTCHAR m
ENCODING 109
SWIDTH 488 0
DWIDTH 19 0
BBX 15 13 2 0
BITMAP
9e3c
f364
e3c6
c182
8102
8102
8102
8102
8102
8102
8102
8102
8102
ENDCHAR
STARTCHAR n
ENCODING 110
SWIDTH 334 0
DWIDTH 13 0
BBX 9 13 2 0
BITMAP
9e00
ff00
f380
c180
c080
8080
8080
8080
8080
8080
8080
8080
8080
ENDCHAR
STARTCHAR o
ENCODING 111
SWIDTH 334 0
DWIDTH 13 0
BBX 10 14 1 -1
BITMAP
1f00
3f80
7380
e080
c0c0
c040
c040
c040
c040
c0c0
e080
7b80
3f00
0400
ENDCHAR
STARTCHAR p
ENCODING 112
SWIDTH 334 0
DWIDTH 13 0
BBX 10 18 2 -5
BITMAP
9e00
bf00
e380
c180
c1c0
80c0
80c0
80c0
80c0
c0c0
c180
f380
ff00
8800
8000
8000
8000
8000
ENDCHAR
STARTCHAR q
ENCODING 113
SWIDTH 334 0
DWIDTH 13 0
BBX 10 18 1 -5
BITMAP
1e40
3f40
73c0
60c0
c0c0
8040
8040
8040
80c0
c0c0
61c0
73c0
3fc0
08c0
00c0
0040
0040
0040
ENDCHAR
STARTCHAR r
ENCODING 114
SWIDTH 205 0
DWIDTH 8 0
BBX 5 13 2 0
BITMAP
98
b8
f8
e0
c0
80
80
80
80
80
80
80
80
ENDCHAR
STARTCHAR s
ENCODING 115
SWIDTH 308 0
DWIDTH 12 0
BBX 10 14 1 -1
BITMAP
3e00
7f80
6180
c180
c000
7000
7e00
1f80
01c0
c0c0
c0c0
e180
7f80
0c00
ENDCHAR
STARTCHAR t
ENCODING 116
SWIDTH 154 0
DWIDTH 6 0
BBX 6 16 0 -1
BITMAP
10
10
10
fc
10
10
10
10
10
10
10
10
10
10
1c
08
ENDCHAR
STARTCHAR u
ENCODING 117
SWIDTH 334 0
DWIDTH 13 0
BBX 9 13 2 -1
BITMAP
8080
8080
8080
8080
8080
8080
8080
8080
8180
8380
e780
7c80
1000
ENDCHAR
STARTCHAR v
ENCODING 118
SWIDTH 308 0
DWIDTH 12 0
BBX 11 12 0 0
BITMAP
c060
60c0
60c0
60c0
3180
3180
3380
1b00
1b00
1e00
0e00
0e00
ENDCHAR
STARTCHAR w
ENCODING 119
SWIDTH 437 0
DWIDTH 17 0
BBX 16 12 0 0
BITMAP
c183
c187
63c6
63c6
62c6
2264
366c
366c
3468
1c38
1c38
1c38
ENDCHAR
STARTCHAR x
ENCODING 120
SWIDTH 308 0
DWIDTH 12 0
BBX 11 12 0 0
BITMAP
60e0
70c0
3180
1b00
1f00
0e00
0e00
1f00
3b80
3180
60c0
e0e0
ENDCHAR
STARTCHAR y
ENCODING 121
SWIDTH 308 0
DWIDTH 12 0
BBX 11 17 0 -5
BITMAP
e060
e0e0
60c0
61c0
7180
3180
3380
3b00
1f00
1e00
1e00
0e00
0c00
0c00
1c00
7800
7000
ENDCHAR
STARTCHAR z
ENCODING 122
SWIDTH 308 0
DWIDTH 12 0
BBX 10 12 1 0
BITMAP
ff80
0380
0300
0600
0c00
0c00
1800
3000
3000
6000
c000
ffc0
ENDCHAR
STARTCHAR braceleft
ENCODING 123
SWIDTH 205 0
DWIDTH 8 0
BBX 5 23 1 -5
BITMAP
18
18
38
20
20
20
20
20
20
20
60
c0
c0
60
20
20
20
20
20
20
20
38
18
ENDCHAR
STARTCHAR bar
ENCODING 124
SWIDTH 154 0
DWIDTH 6 0
BBX 1 22 3 -5
BITMAP
80
80
80
80
80
80
80
80
80
80
80
80
80
80
80
80
80
80
80
80
80
80
ENDCHAR
STARTCHAR braceright
ENCODING 125
SWIDTH 205 0
DWIDTH 8 0
BBX 5 23 1 -5
BITMAP
c0
c0
e0
20
20
20
20
20
20
20
10
18
18
30
20
20
20
20
20
20
20
e0
c0
ENDCHAR
STARTCHAR asciitilde
ENCODING 126
SWIDTH 360 0
DWIDTH 14 0
BBX 10 4 2 6
BITMAP
7040
dc40
8780
0380
ENDCHAR
STARTCHAR exclamdown
ENCODING 161
SWIDTH 360 0
DWIDTH 14 0
BBX 11 13 1 0
BITMAP
3f80
60c0
e060
3820
2020
4020
4020
4020
4020
4020
4020
4020
4020
ENDCHAR
STARTCHAR cent
ENCODING 162
SWIDTH 360 0
DWIDTH 14 0
BBX 11 13 1 0
BITMAP
7c20
f220
9320
9320
7220
0620
0420
0420
0420
0420
0420
0460
1fc0
ENDCHAR
STARTCHAR sterling
ENCODING 163
SWIDTH 385 0
DWIDTH 15 0
BBX 13 13 0 0
BITMAP
3b88
4488
f088
f988
c908
4908
7908
0108
0108
0108
0108
0118
07f0
ENDCHAR
STARTCHAR currency
ENCODING 164
SWIDTH 360 0
DWIDTH 14 0
BBX 11 13 1 0
BITMAP
0f00
70c0
c060
8e20
9320
d320
7e20
7020
3020
3020
1020
1020
1020
ENDCHAR
STARTCHAR yen
ENCODING 165
SWIDTH 360 0
DWIDTH 14 0
BBX 11 13 1 0
BITMAP
3980
6640
c060
ce20
d320
d320
7e20
7020
3020
3020
1020
1020
1020
ENDCHAR
STARTCHAR brokenbar
ENCODING 166
SWIDTH 462 0
DWIDTH 18 0
BBX 14 13 1 0
BITMAP
7704
c984
a184
f304
9a04
9a04
7204
0784
0fe4
1234
120c
1a04
0e04
ENDCHAR
STARTCHAR section
ENCODING 167
SWIDTH 282 0
DWIDTH 11 0
BBX 8 13 1 0
BITMAP
0e
19
19
0f
83
c3
41
61
31
31
19
09
0f
ENDCHAR
STARTCHAR diaeresis
ENCODING 168
SWIDTH 334 0
DWIDTH 13 0
BBX 10 13 1 0
BITMAP
3f00
c180
80c0
0840
1e40
3340
3740
1dc0
00c0
00c0
00c0
0040
0040
ENDCHAR
STARTCHAR copyright
ENCODING 169
SWIDTH 385 0
DWIDTH 15 0
BBX 14 13 1 0
BITMAP
1f80
20c0
4020
0020
e020
9020
9020
f070
33f8
1e2c
1c24
182c
1038
ENDCHAR
STARTCHAR ordfeminine
ENCODING 170
SWIDTH 360 0
DWIDTH 14 0
BBX 13 14 1 0
BITMAP
0018
7c30
f260
93c0
9360
7220
0620
0420
0420
0420
0420
0420
0460
1fc0
ENDCHAR
STARTCHAR guillemotleft
ENCODING 171
SWIDTH 385 0
DWIDTH 15 0
BBX 15 15 0 0
BITMAP
0004
0006
3b0c
44b0
f0f0
f998
c908
4908
7908
0108
0108
0108
0108
0118
07f0
ENDCHAR
STARTCHAR notsign
ENCODING 172
SWIDTH 462 0
DWIDTH 18 0
BBX 15 13 1 0
BITMAP
3f82
c0c2
7042
3042
6042
4042
4042
4042
70e2
7dfa
454e
4546
39c2
ENDCHAR
STARTCHAR hyphen
ENCODING 173
SWIDTH 462 0
DWIDTH 18 0
BBX 15 20 1 -7
BITMAP
3f82
c0c2
7042
3042
6042
4042
4042
4042
7042
7c42
4442
4446
39fc
0000
00c2
01e2
0122
01a4
00fc
0020
ENDCHAR
STARTCHAR registered
ENCODING 174
SWIDTH 411 0
DWIDTH 16 0
BBX 12 20 1 -7
BITMAP
0fc0
1820
3010
0c10
0810
1010
1010
1010
3010
f010
9010
9010
e010
0190
0110
3f10
63d0
4670
3e30
1810
ENDCHAR
STARTCHAR macron
ENCODING 175
SWIDTH 411 0
DWIDTH 16 0
BBX 12 20 1 -7
BITMAP
0fc0
1820
3010
0c10
0810
1010
1010
1010
3010
f010
9010
9010
e010
0210
0210
3a10
6e50
66f0
7b30
3110
ENDCHAR
STARTCHAR degree
ENCODING 176
SWIDTH 334 0
DWIDTH 13 0
BBX 11 21 1 -8
BITMAP
1f00
71e0
7c00
0700
0180
3880
2480
2680
3e80
1b80
0180
0180
0180
0000
1900
1a80
5280
f380
9480
ef00
0100
ENDCHAR
STARTCHAR plusminus
ENCODING 177
SWIDTH 462 0
DWIDTH 18 0
BBX 16 13 0 0
BITMAP
3b8e
449b
f0b1
f9a1
c961
4941
79c1
0181
0181
0181
0181
0101
0101
ENDCHAR
STARTCHAR twosuperior
ENCODING 178
SWIDTH 488 0
DWIDTH 19 0
BBX 16 13 1 0
BITMAP
3981
6641
c061
ce21
9b21
9121
cb21
4621
6c71
28fd
38a7
30a3
30e1
ENDCHAR
STARTCHAR threesuperior
ENCODING 179
SWIDTH 488 0
DWIDTH 19 0
BBX 18 13 1 0
BITMAP
3f8200
c0c200
704200
304200
604200
404200
404200
404300
704fc0
7c7240
446240
4462c0
384380
ENDCHAR
STARTCHAR acute
ENCODING 180
SWIDTH 360 0
DWIDTH 14 0
BBX 11 13 1 0
BITMAP
3f80
6040
c060
ce20
9b20
d120
cb20
4620
6c20
2820
3820
3020
3020
ENDCHAR
STARTCHAR mu
ENCODING 181
SWIDTH 360 0
DWIDTH 14 0
BBX 11 13 1 0
BITMAP
3980
6640
c060
ce20
9b20
9120
cb20
4620
6c20
2820
3820
3020
3020
ENDCHAR
STARTCHAR paragraph
ENCODING 182
SWIDTH 360 0
DWIDTH 14 0
BBX 11 13 1 0
BITMAP
3f80
60c0
e060
3820
2020
4020
4020
4020
7020
7c20
4420
4420
3820
ENDCHAR
STARTCHAR periodcentered
ENCODING 183
SWIDTH 360 0
DWIDTH 14 0
BBX 12 13 1 0
BITMAP
60e0
91f0
9110
f310
3210
3610
1c10
1c10
1810
1810
1810
1010
1010
ENDCHAR
STARTCHAR cedilla
ENCODING 184
SWIDTH 334 0
DWIDTH 13 0
BBX 11 13 1 0
BITMAP
3f00
61e0
f800
0600
0100
1080
1080
1080
1080
1080
1080
1180
7f00
ENDCHAR
STARTCHAR onesuperior
ENCODING 185
SWIDTH 385 0
DWIDTH 15 0
BBX 14 13 1 0
BITMAP
6020
9020
9020
f020
3020
3020
1020
1070
11fc
1b24
1c24
182c
1038
ENDCHAR
STARTCHAR masculine
ENCODING 186
SWIDTH 385 0
DWIDTH 15 0
BBX 12 13 1 0
BITMAP
6010
9010
9010
f010
3010
3010
1010
1010
1010
1010
1010
1030
7fe0
ENDCHAR
STARTCHAR guillemotright
ENCODING 187
SWIDTH 385 0
DWIDTH 15 0
BBX 12 18 1 0
BITMAP
0010
0010
0010
0010
0010
e010
9010
9010
f010
3010
3010
1010
1010
1010
1010
1010
1030
7fe0
ENDCHAR
STARTCHAR onequarter
ENCODING 188
SWIDTH 385 0
DWIDTH 15 0
BBX 10 13 2 0
BITMAP
7040
9840
9840
f040
8040
8040
8c40
8e40
9340
e1c0
e0c0
c040
8040
ENDCHAR
STARTCHAR onehalf
ENCODING 189
SWIDTH 385 0
DWIDTH 15 0
BBX 10 18 2 0
BITMAP
0040
0040
0040
0040
0040
7040
9840
9840
f040
8040
8040
8c40
8e40
9340
e1c0
e0c0
c040
8040
ENDCHAR
STARTCHAR threequarters
ENCODING 190
SWIDTH 437 0
DWIDTH 17 0
BBX 14 13 1 0
BITMAP
6084
9084
91c4
f144
3164
3224
1234
1e34
1c1c
1c1c
180c
180c
1004
ENDCHAR
STARTCHAR questiondown
ENCODING 191
SWIDTH 437 0
DWIDTH 17 0
BBX 14 18 1 0
BITMAP
0004
0004
0004
0004
0004
e084
9084
91c4
f144
3364
3224
1234
1e34
1c1c
1c1c
180c
180c
1004
ENDCHAR
STARTCHAR Agrave
ENCODING 192
SWIDTH 411 0
DWIDTH 16 0
BBX 12 13 1 0
BITMAP
0fc0
1820
3010
0c10
0810
1010
1010
1010
3010
f010
9010
9010
e010
ENDCHAR
STARTCHAR Aacute
ENCODING 193
SWIDTH 385 0
DWIDTH 15 0
BBX 12 13 1 0
BITMAP
7010
c810
8810
7810
1810
0810
0810
1c10
7f90
c8d0
c870
d830
7810
ENDCHAR
STARTCHAR Acircumflex
ENCODING 194
SWIDTH 334 0
DWIDTH 13 0
BBX 10 13 1 0
BITMAP
3c40
6440
6440
f840
4040
6040
3840
3840
6040
4040
4040
4040
7f80
ENDCHAR
STARTCHAR Atilde
ENCODING 195
SWIDTH 308 0
DWIDTH 12 0
BBX 11 13 1 0
BITMAP
3e00
61c0
f800
0e00
0300
0100
0100
0100
0300
0f00
0900
0900
0600
ENDCHAR
STARTCHAR Adiaeresis
ENCODING 196
SWIDTH 360 0
DWIDTH 14 0
BBX 11 20 1 -7
BITMAP
3f80
60c0
e060
3820
2020
4020
4020
4020
7020
7c20
4420
4420
3820
0020
0020
0020
0020
0020
0020
0020
ENDCHAR
STARTCHAR Aring
ENCODING 197
SWIDTH 360 0
DWIDTH 14 0
BBX 10 13 1 0
BITMAP
3f00
6080
4040
1840
3e40
6240
4340
41c0
50c0
78c0
44c0
4c40
3840
ENDCHAR
STARTCHAR AE
ENCODING 198
SWIDTH 411 0
DWIDTH 16 0
BBX 12 20 1 -7
BITMAP
0fc0
1820
3010
0c10
0810
1010
1010
1010
3010
f010
9010
9010
e010
0010
0010
0010
0010
0010
0010
0010
ENDCHAR
STARTCHAR Ccedilla
ENCODING 199
SWIDTH 334 0
DWIDTH 13 0
BBX 10 13 1 0
BITMAP
3f00
c180
80c0
0040
0040
0040
0040
0040
0140
07c0
0440
0640
0380
ENDCHAR
STARTCHAR Egrave
ENCODING 200
SWIDTH 360 0
DWIDTH 14 0
BBX 12 14 1 0
BITMAP
0010
3fd0
60e0
c060
cfa0
d320
d320
7e20
7020
3020
3020
1020
1020
1020
ENDCHAR
STARTCHAR Eacute
ENCODING 201
SWIDTH 411 0
DWIDTH 16 0
BBX 15 13 1 0
BITMAP
6010
9010
9010
f010
3396
325c
12dc
11f0
1030
1010
1010
1030
7fe0
ENDCHAR
STARTCHAR Ecircumflex
ENCODING 202
SWIDTH 360 0
DWIDTH 14 0
BBX 11 14 1 0
BITMAP
0060
3fc0
6080
4140
1940
3e40
6340
4340
41c0
50c0
78c0
44c0
4c40
3840
ENDCHAR
STARTCHAR Ediaeresis
ENCODING 203
SWIDTH 411 0
DWIDTH 16 0
BBX 13 13 1 0
BITMAP
6060
9090
9090
f0e0
30e0
3390
1210
1e10
1c10
1810
1810
1010
1010
ENDCHAR
STARTCHAR Igrave
ENCODING 204
SWIDTH 437 0
DWIDTH 17 0
BBX 17 15 1 0
BITMAP
003900
002500
e0ae00
90bc00
918800
f1c800
314800
336800
122800
1e2800
1c1800
1c1800
180800
180800
100800
ENDCHAR
STARTCHAR Iacute
ENCODING 205
SWIDTH 360 0
DWIDTH 14 0
BBX 11 13 1 0
BITMAP
3f80
60c0
4060
0020
3c20
4420
4420
7820
4020
4020
4020
6060
3fc0
ENDCHAR
STARTCHAR Icircumflex
ENCODING 206
SWIDTH 360 0
DWIDTH 14 0
BBX 11 13 2 0
BITMAP
7f20
c1e0
c1c0
7ec0
00c0
7040
c840
8840
f840
e040
c040
c0c0
7f80
ENDCHAR
STARTCHAR Idiaeresis
ENCODING 207
SWIDTH 334 0
DWIDTH 13 0
BBX 10 14 1 -1
BITMAP
7840
4840
c8c0
f1c0
41c0
6240
1c40
0040
0040
0040
00c0
0180
0300
0200
ENDCHAR
STARTCHAR ETH
ENCODING 208
SWIDTH 282 0
DWIDTH 11 0
BBX 8 13 1 0
BITMAP
73
93
92
7c
00
00
00
00
63
93
93
f6
7c
ENDCHAR
STARTCHAR Ntilde
ENCODING 209
SWIDTH 0 0
DWIDTH 0 0
BBX 12 5 -8 16
BITMAP
7010
d830
d860
f9c0
7f80
ENDCHAR
STARTCHAR Ograve
ENCODING 210
SWIDTH 282 0
DWIDTH 11 0
BBX 8 13 1 0
BITMAP
7c
c2
81
01
01
01
01
01
01
01
01
01
01
ENDCHAR
STARTCHAR Oacute
ENCODING 211
SWIDTH 282 0
DWIDTH 11 0
BBX 14 20 -5 0
BITMAP
f000
9000
9000
f000
0000
0000
0000
01f0
0308
0204
0004
0004
0004
0004
0004
0004
0004
0004
0004
0004
ENDCHAR
STARTCHAR Ocircumflex
ENCODING 212
SWIDTH 0 0
DWIDTH 0 0
BBX 11 6 -13 15
BITMAP
0e00
3380
40c0
ff40
81e0
0020
ENDCHAR
STARTCHAR Otilde
ENCODING 213
SWIDTH 51 0
DWIDTH 2 0
BBX 11 7 -12 15
BITMAP
0040
0f40
31c0
60c0
7f40
81e0
0020
ENDCHAR
STARTCHAR Odiaeresis
ENCODING 214
SWIDTH 0 0
DWIDTH 0 0
BBX 11 8 -12 15
BITMAP
00c0
0160
1f20
33e0
60c0
ff40
81e0
0020
ENDCHAR
STARTCHAR multiply
ENCODING 215
SWIDTH 51 0
DWIDTH 2 0
BBX 11 7 -12 15
BITMAP
0140
1f40
31c0
60c0
7f40
81e0
0020
ENDCHAR
STARTCHAR Ooblique
ENCODING 216
SWIDTH 0 0
DWIDTH 0 0
BBX 5 8 -7 -10
BITMAP
70
c8
c8
78
18
08
08
08
ENDCHAR
STARTCHAR Ugrave
ENCODING 217
SWIDTH 0 0
DWIDTH 0 0
BBX 8 8 -10 -10
BITMAP
f1
91
91
f1
11
11
1b
0e
ENDCHAR
STARTCHAR Uacute
ENCODING 218
SWIDTH 0 0
DWIDTH 0 0
BBX 1 3 -3 -5
BITMAP
80
80
80
ENDCHAR
STARTCHAR Ucircumflex
ENCODING 219
SWIDTH 0 0
DWIDTH 0 0
BBX 3 3 -5 -10
BITMAP
40
e0
60
ENDCHAR
STARTCHAR Udiaeresis
ENCODING 220
SWIDTH 0 0
DWIDTH 0 0
BBX 1 1 0 0
BITMAP
00
ENDCHAR
STARTCHAR Yacute
ENCODING 221
SWIDTH 0 0
DWIDTH 0 0
BBX 1 1 0 0
BITMAP
00
ENDCHAR
STARTCHAR THORN
ENCODING 222
SWIDTH 0 0
DWIDTH 0 0
BBX 1 1 0 0
BITMAP
00
ENDCHAR
STARTCHAR ssharp
ENCODING 223
SWIDTH 0 0
DWIDTH 0 0
BBX 1 1 0 0
BITMAP
00
ENDCHAR
STARTCHAR agrave
ENCODING 224
SWIDTH 205 0
DWIDTH 8 0
BBX 5 13 2 0
BITMAP
80
80
80
80
80
80
80
c0
e0
f8
88
88
70
ENDCHAR
STARTCHAR aacute
ENCODING 225
SWIDTH 360 0
DWIDTH 14 0
BBX 11 13 2 0
BITMAP
8100
8100
8100
8100
8100
8100
8100
c180
e1c0
f9e0
8920
8920
70e0
ENDCHAR
STARTCHAR acircumflex
ENCODING 226
SWIDTH 205 0
DWIDTH 8 0
BBX 10 24 -1 0
BITMAP
3c40
e780
7000
1800
0c00
0400
0400
0400
0400
0400
0400
0400
0400
0400
0400
0400
0400
0600
0600
0700
0780
0480
0480
0300
ENDCHAR
STARTCHAR atilde
ENCODING 227
SWIDTH 205 0
DWIDTH 8 0
BBX 9 24 -1 0
BITMAP
7800
cc00
e400
a400
a400
6400
0400
0400
0400
0400
0400
0400
0400
0400
0400
0400
0600
0600
0600
0700
0780
0480
0480
0300
ENDCHAR
STARTCHAR adiaeresis
ENCODING 228
SWIDTH 257 0
DWIDTH 10 0
BBX 10 24 -1 0
BITMAP
8600
ce00
4a00
5a00
7200
3200
3200
1200
0200
0200
0200
0200
0200
0200
0200
0200
0300
0300
0300
0380
03c0
0240
0240
01c0
ENDCHAR
STARTCHAR aring
ENCODING 229
SWIDTH 282 0
DWIDTH 11 0
BBX 8 20 1 -7
BITMAP
7c
c2
81
01
01
01
01
01
01
01
01
01
01
01
01
01
01
01
01
01
ENDCHAR
STARTCHAR ae
ENCODING 230
SWIDTH 385 0
DWIDTH 15 0
BBX 9 18 4 -5
BITMAP
3f00
4d80
c080
b080
c880
c880
7880
0080
0080
0080
0080
0080
0080
0080
0080
0180
0300
0600
ENDCHAR
STARTCHAR ccedilla
ENCODING 231
SWIDTH 0 0
DWIDTH 0 0
BBX 10 8 -11 15
BITMAP
0040
00c0
7f80
c000
d380
fe80
6680
2100
ENDCHAR
STARTCHAR egrave
ENCODING 232
SWIDTH 0 0
DWIDTH 0 0
BBX 1 5 -3 24
BITMAP
80
80
80
80
80
ENDCHAR
STARTCHAR eacute
ENCODING 233
SWIDTH 0 0
DWIDTH 0 0
BBX 8 5 -7 23
BITMAP
e1
91
f2
26
3c
ENDCHAR
STARTCHAR ecircumflex
ENCODING 234
SWIDTH 0 0
DWIDTH 0 0
BBX 9 5 -9 23
BITMAP
7c80
8280
e280
a700
6400
ENDCHAR
STARTCHAR ediaeresis
ENCODING 235
SWIDTH 0 0
DWIDTH 0 0
BBX 6 5 -6 23
BITMAP
10
10
fc
10
10
ENDCHAR
STARTCHAR igrave
ENCODING 236
SWIDTH 0 0
DWIDTH 0 0
BBX 7 6 -6 22
BITMAP
02
7c
c0
f0
90
70
ENDCHAR
STARTCHAR iacute
ENCODING 237
SWIDTH 0 0
DWIDTH 0 0
BBX 5 5 -7 15
BITMAP
20
f8
88
d8
70
ENDCHAR
STARTCHAR icircumflex
ENCODING 238
SWIDTH 0 0
DWIDTH 0 0
BBX 5 4 -7 19
BITMAP
78
88
d8
70
ENDCHAR
STARTCHAR idiaeresis
ENCODING 239
SWIDTH 334 0
DWIDTH 13 0
BBX 13 13 0 0
BITMAP
0f80
3060
6030
4790
cfc8
9fc8
9fc8
9fc8
cfc8
4710
6030
38e0
0f80
ENDCHAR
STARTCHAR eth
ENCODING 240
SWIDTH 360 0
DWIDTH 14 0
BBX 10 9 2 0
BITMAP
3f00
6180
c0c0
8040
8040
8040
4080
6180
3f00
ENDCHAR
STARTCHAR ntilde
ENCODING 241
SWIDTH 360 0
DWIDTH 14 0
BBX 10 11 2 -1
BITMAP
1e00
6180
40c0
8c40
9e40
9240
9e40
4e40
7c80
0080
0100
ENDCHAR
STARTCHAR ograve
ENCODING 242
SWIDTH 437 0
DWIDTH 17 0
BBX 14 14 1 0
BITMAP
8000
c000
4000
4000
4110
47f8
4c44
4f44
4984
4984
4704
6004
300c
1ff8
ENDCHAR
STARTCHAR oacute
ENCODING 243
SWIDTH 411 0
DWIDTH 16 0
BBX 13 10 1 0
BITMAP
1c60
2690
6308
4108
c108
f908
6d08
4508
6d08
3918
ENDCHAR
STARTCHAR ocircumflex
ENCODING 244
SWIDTH 411 0
DWIDTH 16 0
BBX 14 15 2 0
BITMAP
0004
0004
000c
000c
0008
0438
3ff0
6000
c700
8900
8900
8f00
4700
63f0
3ff0
ENDCHAR
STARTCHAR otilde
ENCODING 245
SWIDTH 411 0
DWIDTH 16 0
BBX 14 15 2 0
BITMAP
0004
0004
070c
0d0c
0988
0f38
3ff0
6000
c700
8900
8900
8f00
4700
63f0
3ff0
ENDCHAR
STARTCHAR odiaeresis
ENCODING 246
SWIDTH 308 0
DWIDTH 12 0
BBX 11 15 0 0
BITMAP
4000
c000
4000
6000
2000
2f80
3fc0
20c0
0060
0860
3c60
2460
24c0
3fc0
1f00
ENDCHAR
STARTCHAR division
ENCODING 247
SWIDTH 437 0
DWIDTH 17 0
BBX 15 14 1 0
BITMAP
0002
0006
0006
0006
0006
19c6
6746
4226
4224
c024
5824
644c
6458
3860
ENDCHAR
STARTCHAR oslash
ENCODING 248
SWIDTH 411 0
DWIDTH 16 0
BBX 14 14 1 0
BITMAP
0004
0004
0004
0004
000c
1ff8
3020
6000
4070
c0d8
5cd8
7278
3118
18f0
ENDCHAR
STARTCHAR ugrave
ENCODING 249
SWIDTH 385 0
DWIDTH 15 0
BBX 13 14 1 0
BITMAP
0018
0018
0008
0008
0008
3ef8
73b0
4180
c080
ccc0
de60
5360
7a30
1e30
ENDCHAR
STARTCHAR uacute
ENCODING 250
SWIDTH 1002 0
DWIDTH 39 0
BBX 38 1 0 6
BITMAP
fffffffffc
ENDCHAR
STARTCHAR ucircumflex
ENCODING 251
SWIDTH 488 0
DWIDTH 19 0
BBX 18 1 1 6
BITMAP
ffffc0
ENDCHAR
STARTCHAR udiaeresis
ENCODING 252
SWIDTH 0 0
DWIDTH 0 0
BBX 5 8 -7 -16
BITMAP
70
c8
c8
78
18
08
08
08
ENDCHAR
STARTCHAR yacute
ENCODING 253
SWIDTH 0 0
DWIDTH 0 0
BBX 8 8 -10 -16
BITMAP
f1
91
91
f1
11
11
1b
0e
ENDCHAR
STARTCHAR thorn
ENCODING 254
SWIDTH 462 0
DWIDTH 18 0
BBX 16 16 1 0
BITMAP
07e0
0c38
100c
27e6
4222
c231
8261
8381
82c1
8261
4231
4f3a
2002
3004
1808
0ff0
ENDCHAR
STARTCHAR ydiaeresis
ENCODING 255
SWIDTH 0 0
DWIDTH 0 0
BBX 1 1 0 0
BITMAP
00
ENDCHAR
ENDFONT
